<svg id="visual" viewBox="0 0 900 450" width="900" height="450" xmlns="http://www.w3.org/2000/svg" xmlns:xlink="http://www.w3.org/1999/xlink" version="1.1"><g transform="translate(-28.604892024404123 -2.242274659148677)"><path d="M104.5 -199.1C116.7 -174 94.9 -108.1 125.6 -68.1C156.4 -28.1 239.7 -14.1 251.9 7.1C264.1 28.2 205.2 56.3 175.8 98.6C146.4 140.9 146.5 197.3 122.1 215.2C97.7 233.2 48.8 212.6 -3.7 219C-56.2 225.4 -112.5 258.9 -147.1 246.9C-181.8 234.9 -194.8 177.4 -196.2 128.7C-197.6 80 -187.3 40 -185.7 0.9C-184.1 -38.2 -191.2 -76.3 -189.2 -124C-187.2 -171.6 -176.1 -228.7 -143.1 -241.8C-110 -254.9 -55 -223.9 -4.4 -216.3C46.2 -208.6 92.3 -224.3 104.5 -199.1" fill="#FDC435"></path></g></svg>