<svg id="visual" viewBox="0 0 900 450" width="900" height="450" xmlns="http://www.w3.org/2000/svg" xmlns:xlink="http://www.w3.org/1999/xlink" version="1.1"><g transform="translate(-89.4185124442343 41.93693324241184)"><path d="M126.4 -214.9C190.7 -181.7 288.5 -202.4 385.5 -175.5C482.5 -148.7 578.7 -74.3 546 -18.9C513.2 36.5 351.4 73 282.9 149.1C214.3 225.1 238.9 340.8 207.3 374.2C175.7 407.6 87.8 358.8 22.6 319.7C-42.7 280.6 -85.3 251.1 -160.4 242.8C-235.4 234.5 -342.9 247.2 -367.7 210.3C-392.6 173.3 -334.8 86.7 -284.1 29.3C-233.4 -28.1 -189.8 -56.3 -195.2 -145.6C-200.6 -234.9 -255.1 -385.5 -230.7 -441.8C-206.3 -498 -103.2 -460 -36.1 -397.5C31 -335 62 -248.1 126.4 -214.9" fill="#FDC435"></path></g></svg>