<svg id="visual" viewBox="0 0 900 675" width="900" height="675" xmlns="http://www.w3.org/2000/svg" xmlns:xlink="http://www.w3.org/1999/xlink" version="1.1"><g transform="translate(515.3167029694021 285.91746371895607)"><path d="M77.1 -106.7C109.6 -114.9 152.2 -113.7 164.1 -94.3C175.9 -75 157 -37.5 147.7 -5.3C138.5 26.8 139 53.7 158 126.6C177.1 199.4 214.8 318.4 191.6 330.3C168.3 342.2 84.2 247.1 -0.1 247.3C-84.4 247.5 -168.8 343 -208.3 340.5C-247.8 338 -242.6 237.5 -262.5 164.4C-282.5 91.3 -327.8 45.7 -329.5 -1C-331.2 -47.7 -289.5 -95.3 -256.3 -145.6C-223.1 -195.8 -198.6 -248.6 -157.3 -235.3C-116 -222 -58 -142.7 -17.8 -111.8C22.3 -80.9 44.7 -98.5 77.1 -106.7" fill="#FDC435"></path></g></svg>