<svg id="visual" viewBox="0 0 900 450" width="900" height="450" xmlns="http://www.w3.org/2000/svg" xmlns:xlink="http://www.w3.org/1999/xlink" version="1.1"><g transform="translate(24.637197984713907 -128.22261914004713)"><path d="M137.1 -197.7C204 -199 302.5 -215.2 411.2 -184.8C520 -154.3 639 -77.2 657.9 10.9C676.8 99 595.6 198 490.7 235.1C385.8 272.2 257.1 247.4 171.4 294.7C85.7 342 42.8 461.5 -18.6 493.7C-80 525.9 -160 470.8 -243.1 422C-326.3 373.1 -412.6 330.6 -513.2 261.3C-613.8 192 -728.8 96 -707.3 12.4C-685.8 -71.2 -527.8 -142.3 -412.2 -185.8C-296.7 -229.2 -223.6 -244.9 -162 -246.7C-100.3 -248.4 -50.2 -236.2 -7.5 -223.2C35.2 -210.2 70.3 -196.5 137.1 -197.7" fill="#FDC435"></path></g></svg>