<svg id="visual" viewBox="0 0 900 450" width="900" height="450" xmlns="http://www.w3.org/2000/svg" xmlns:xlink="http://www.w3.org/1999/xlink" version="1.1"><g transform="translate(458.0857723712518 253.34887527705803)"><path d="M131.7 -202.9C165.8 -208.5 185.1 -163.2 201 -121C216.9 -78.7 229.5 -39.3 208.2 -12.3C187 14.8 132.1 29.7 109.3 60.1C86.6 90.6 96 136.7 83.2 145.6C70.3 154.5 35.2 126.2 3.2 120.8C-28.8 115.3 -57.7 132.5 -86.7 133C-115.7 133.4 -144.9 116.9 -148.1 92C-151.4 67 -128.7 33.5 -148.4 -11.4C-168.1 -56.2 -230.2 -112.5 -235.3 -151.9C-240.4 -191.3 -188.4 -213.9 -139.7 -199.8C-91 -185.7 -45.5 -135.1 1.7 -138C48.8 -140.8 97.7 -197.3 131.7 -202.9" fill="#FDC435"></path></g></svg>