<svg id="visual" viewBox="0 0 900 600" width="900" height="600" xmlns="http://www.w3.org/2000/svg" xmlns:xlink="http://www.w3.org/1999/xlink" version="1.1"><path d="M0 537L16.7 529.8C33.3 522.7 66.7 508.3 100 503.3C133.3 498.3 166.7 502.7 200 509.8C233.3 517 266.7 527 300 525.8C333.3 524.7 366.7 512.3 400 511C433.3 509.7 466.7 519.3 500 516C533.3 512.7 566.7 496.3 600 492.7C633.3 489 666.7 498 700 497C733.3 496 766.7 485 800 479.2C833.3 473.3 866.7 472.7 883.3 472.3L900 472L900 601L883.3 601C866.7 601 833.3 601 800 601C766.7 601 733.3 601 700 601C666.7 601 633.3 601 600 601C566.7 601 533.3 601 500 601C466.7 601 433.3 601 400 601C366.7 601 333.3 601 300 601C266.7 601 233.3 601 200 601C166.7 601 133.3 601 100 601C66.7 601 33.3 601 16.7 601L0 601Z" fill="#FDC435" stroke-linecap="round" stroke-linejoin="miter"></path></svg>