<svg id="visual" viewBox="0 0 900 450" width="900" height="450" xmlns="http://www.w3.org/2000/svg" xmlns:xlink="http://www.w3.org/1999/xlink" version="1.1"><path d="M0 344L21.5 348C43 352 86 360 128.8 354.8C171.7 349.7 214.3 331.3 257.2 323.7C300 316 343 319 385.8 331.8C428.7 344.7 471.3 367.3 514.2 368.8C557 370.3 600 350.7 642.8 343.3C685.7 336 728.3 341 771.2 336.2C814 331.3 857 316.7 878.5 309.3L900 302L900 451L878.5 451C857 451 814 451 771.2 451C728.3 451 685.7 451 642.8 451C600 451 557 451 514.2 451C471.3 451 428.7 451 385.8 451C343 451 300 451 257.2 451C214.3 451 171.7 451 128.8 451C86 451 43 451 21.5 451L0 451Z" fill="#FDC435" stroke-linecap="round" stroke-linejoin="miter"></path></svg>